<svg xmlns="http://www.w3.org/2000/svg" xmlns:svg="http://www.w3.org/2000/svg" id="svg37" width="16" height="16" version="1.1" viewBox="0 0 16 16" xml:space="preserve"><defs id="defs41"><linearGradient id="linearGradient5133" x1="8.353" x2="8.353" y1="8.303" y2="12.262" gradientUnits="userSpaceOnUse"><stop id="stop5129" offset=".222" stop-color="#5fb2ff" style="stop-color:#774343;stop-opacity:1"/><stop id="stop5131" offset="1" stop-color="#a2d2ff" style="stop-color:#874949;stop-opacity:0"/></linearGradient><linearGradient id="linearGradient5117" x1="8.353" x2="8.353" y1="8.303" y2="12.262" gradientUnits="userSpaceOnUse"><stop id="stop5113" offset=".335" stop-color="#5fb2ff" style="stop-color:#654444;stop-opacity:1"/><stop id="stop5115" offset="1" stop-color="#a2d2ff" style="stop-color:#472323;stop-opacity:0"/></linearGradient><linearGradient id="linearGradient986" x1="8.353" x2="8.353" y1="8.303" y2="12.262" gradientUnits="userSpaceOnUse"><stop id="stop982" offset=".335" stop-color="#5fb2ff" style="stop-color:#ffa7a7;stop-opacity:1"/><stop id="stop984" offset="1" stop-color="#a2d2ff" style="stop-color:#fc7f7f;stop-opacity:1"/></linearGradient></defs><linearGradient id="a" x1="8.353" x2="8.353" y1="8.303" y2="12.262" gradientUnits="userSpaceOnUse"><stop id="stop974" offset=".222" stop-color="#5fb2ff" style="stop-color:#fcaaaa;stop-opacity:1"/><stop id="stop28" offset="1" stop-color="#a2d2ff" style="stop-color:#fc7f7f;stop-opacity:1"/></linearGradient><g id="g35" transform="matrix(1.1122949,0,0,1.1122949,-0.89835899,-2.0106539)"><path id="path31" style="fill:#80ff45;fill-opacity:1" d="M 2.99381 10.750674 L 1.0008162 11.605817 L 7.9999998 14.604966 L 14.999183 11.605817 L 13.00619 10.750674 L 7.9999998 12.896434 L 2.99381 10.750674 z"/><path id="path1728" style="fill:#ff4545;fill-opacity:1" d="M 3.3713375 8.1114933 L 1.0008162 9.1264276 L 7.9999998 12.127332 L 14.999183 9.1264276 L 12.628662 8.1114933 L 7.9999998 10.095707 L 3.3713375 8.1114933 z"/><path id="path1730" fill="#a2d2ff" fill-rule="evenodd" d="M 1,6.3889173 8,9.3889174 15,6.3889173 8,3.388917 Z" style="fill:#45d7ff;fill-opacity:1"/></g></svg>