<svg xmlns="http://www.w3.org/2000/svg" xmlns:svg="http://www.w3.org/2000/svg" xmlns:xlink="http://www.w3.org/1999/xlink" id="svg37" width="16" height="16" version="1.1" viewBox="0 0 16 16"><defs id="defs41"><linearGradient id="linearGradient5133" x1="8.353" x2="8.353" y1="8.303" y2="12.262" gradientUnits="userSpaceOnUse"><stop id="stop5129" offset=".222" stop-color="#5fb2ff" style="stop-color:#774343;stop-opacity:1"/><stop id="stop5131" offset="1" stop-color="#a2d2ff" style="stop-color:#874949;stop-opacity:0"/></linearGradient><linearGradient id="linearGradient5117" x1="8.353" x2="8.353" y1="8.303" y2="12.262" gradientUnits="userSpaceOnUse"><stop id="stop5113" offset=".335" stop-color="#5fb2ff" style="stop-color:#654444;stop-opacity:1"/><stop id="stop5115" offset="1" stop-color="#a2d2ff" style="stop-color:#472323;stop-opacity:0"/></linearGradient><linearGradient id="linearGradient986" x1="8.353" x2="8.353" y1="8.303" y2="12.262" gradientUnits="userSpaceOnUse"><stop id="stop982" offset=".335" stop-color="#5fb2ff" style="stop-color:#ffa7a7;stop-opacity:1"/><stop id="stop984" offset="1" stop-color="#a2d2ff" style="stop-color:#fc7f7f;stop-opacity:1"/></linearGradient><radialGradient id="radialGradient988" cx="9.262" cy="4.471" r="5.606" fx="9.262" fy="4.471" gradientTransform="matrix(1.117063,1.0590527,-0.47291808,0.66317457,1.0302534,-7.8483143)" gradientUnits="userSpaceOnUse" xlink:href="#a"/><radialGradient id="radialGradient990" cx="4.832" cy="7.311" r="3.221" fx="4.832" fy="7.311" gradientTransform="matrix(1.4231892,0.94879179,-0.4953986,0.98793485,1.5766917,-4.6677634)" gradientUnits="userSpaceOnUse" xlink:href="#linearGradient986"/></defs><linearGradient id="a" x1="8.353" x2="8.353" y1="8.303" y2="12.262" gradientUnits="userSpaceOnUse"><stop id="stop974" offset=".222" stop-color="#5fb2ff" style="stop-color:#fcaaaa;stop-opacity:1"/><stop id="stop28" offset="1" stop-color="#a2d2ff" style="stop-color:#fc7f7f;stop-opacity:1"/></linearGradient><g id="g35" transform="matrix(1.1122949,0,0,1.1122949,-0.89835899,-2.0106539)"><path id="path31" fill="#a2d2ff" fill-rule="evenodd" d="m 1,11.605747 7,3 7,-3 -7,-3.0000001 z" style="fill:#fc7f7f;fill-opacity:1"/><path id="path33" fill="url(#a)" d="m 2.3437741,11.365789 c 1,-1.15303 1.1365135,-4.7329648 3.1357756,-4.6703265 1.1608823,0.036371 1.3735517,-4.3501566 3.1261972,-3.2262774 2.5001301,1.6032017 2.8421471,2.9505808 3.5552681,3.8083147 0.863429,1.0385227 0.749621,2.3889247 1.394253,4.0882892 -1.264298,0.828986 -7.0224636,3.616739 -11.2114939,0 z" style="fill:url(#radialGradient988);fill-opacity:1;stroke-width:1.07379"/><path id="path978" fill="url(#a)" d="m 2.3437741,11.365789 c 1,-1.15303 1.1869924,-5.2859004 3.1862545,-5.2232621 C 9.7026725,10.196693 7.7762139,9.5750642 9.1776446,13.11518 6.2850732,13.13069 6.266927,12.07401 2.3437741,11.365789 Z" style="fill:url(#radialGradient990);fill-opacity:1;stroke-width:1.07379"/></g></svg>