<svg xmlns="http://www.w3.org/2000/svg" xmlns:svg="http://www.w3.org/2000/svg" xmlns:xlink="http://www.w3.org/1999/xlink" id="svg1103" width="128" height="128" version="1.1"><defs id="defs1107"><radialGradient id="radialGradient988" cx="9.262" cy="4.471" r="5.606" fx="9.262" fy="4.471" gradientTransform="matrix(9.8409883,9.3299347,-4.1662657,5.8423679,2.7362079,-85.674926)" gradientUnits="userSpaceOnUse" xlink:href="#a"/><linearGradient id="a" x1="8.353" x2="8.353" y1="8.303" y2="12.262" gradientUnits="userSpaceOnUse"><stop id="stop974" offset=".222" stop-color="#5fb2ff" style="stop-color:#fcaaaa;stop-opacity:1"/><stop id="stop28" offset="1" stop-color="#a2d2ff" style="stop-color:#fc7f7f;stop-opacity:1"/></linearGradient><radialGradient id="radialGradient990" cx="4.832" cy="7.311" r="3.221" fx="4.832" fy="7.311" gradientTransform="matrix(12.537868,8.3585698,-4.3643123,8.7034081,7.5501602,-57.655228)" gradientUnits="userSpaceOnUse" xlink:href="#linearGradient986"/><linearGradient id="linearGradient986" x1="8.353" x2="8.353" y1="8.303" y2="12.262" gradientUnits="userSpaceOnUse"><stop id="stop982" offset=".335" stop-color="#5fb2ff" style="stop-color:#ffa7a7;stop-opacity:1"/><stop id="stop984" offset="1" stop-color="#a2d2ff" style="stop-color:#fc7f7f;stop-opacity:1"/></linearGradient></defs><path id="path31" fill="#a2d2ff" fill-rule="evenodd" d="M 2.4696115,85.709484 64.137546,112.13858 125.8054,85.709484 64.137546,59.280387 Z" style="fill:#fc7f7f;fill-opacity:1;stroke-width:8.80966"/><path id="path33" fill="url(#a)" d="M 14.307911,83.595527 C 23.117571,73.437684 24.320267,41.899539 41.93317,42.451362 52.160166,42.771817 54.033711,4.1277942 69.474,14.02883 c 22.025376,14.123723 25.038413,25.993727 31.32079,33.550104 7.60656,9.149068 6.60393,21.045708 12.28302,36.016593 -11.13815,7.303118 -61.865782,31.862373 -98.769899,0 z" style="fill:url(#radialGradient988);fill-opacity:1;stroke-width:9.45976"/><path id="path978" fill="url(#a)" d="M 14.307911,83.595527 C 23.117571,73.437684 24.764912,37.028339 42.377815,37.580162 79.137546,73.296148 62.166027,67.819782 74.512255,99.007137 49.029513,99.143762 48.869681,89.834744 14.307911,83.595527 Z" style="fill:url(#radialGradient990);fill-opacity:1;stroke-width:9.45976"/></svg>